/* XPM */
static char * wxlame_xpm[] = {
"32 32 374 2",
"  	c None",
". 	c #AFAFAF",
"+ 	c #B6B6B6",
"@ 	c #ACACAC",
"# 	c #B8B8B8",
"$ 	c #B4B4B4",
"% 	c #B5B5B5",
"& 	c #C6C6C6",
"* 	c #FFFFFF",
"= 	c #F4F4F4",
"- 	c #E0E0E0",
"; 	c #BFBFBF",
"> 	c #A3A3A3",
", 	c #A8A8A8",
"' 	c #9D9D9D",
") 	c #9A9A9A",
"! 	c #9F9F9F",
"~ 	c #AAAAAA",
"{ 	c #A2A2A2",
"] 	c #A6A6A6",
"^ 	c #B1B1B1",
"/ 	c #B0B0B0",
"( 	c #BDBDBD",
"_ 	c #D9D9D9",
": 	c #FDFDFD",
"< 	c #EBEBEB",
"[ 	c #E3E3E3",
"} 	c #D3D3D3",
"| 	c #C3C3C3",
"1 	c #D6D6D6",
"2 	c #EAEAEA",
"3 	c #F7F7F7",
"4 	c #FCFCFC",
"5 	c #FBFBFB",
"6 	c #F8F8F8",
"7 	c #F2F2F2",
"8 	c #E7E7E7",
"9 	c #D8D8D8",
"0 	c #C8C8C8",
"a 	c #B2B2B2",
"b 	c #CFCFCF",
"c 	c #F0F0F0",
"d 	c #E5E5E5",
"e 	c #DEDEDE",
"f 	c #DADADA",
"g 	c #F6F6F6",
"h 	c #BEBEBE",
"i 	c #B3B3B3",
"j 	c #C0C0C0",
"k 	c #EEEEEE",
"l 	c #F9F9F9",
"m 	c #8D8D8D",
"n 	c #6E6E6E",
"o 	c #5D5D5D",
"p 	c #555555",
"q 	c #FAFAFA",
"r 	c #F3F3F3",
"s 	c #DFDFDF",
"t 	c #595959",
"u 	c #3C3C3C",
"v 	c #3D3D3D",
"w 	c #424242",
"x 	c #434343",
"y 	c #3E3E3E",
"z 	c #ABABAB",
"A 	c #C1C1C1",
"B 	c #EDEDED",
"C 	c #C7C7C7",
"D 	c #737373",
"E 	c #393939",
"F 	c #454545",
"G 	c #4A4A4A",
"H 	c #696969",
"I 	c #C5C5C5",
"J 	c #CCCCCC",
"K 	c #A7A7A7",
"L 	c #707070",
"M 	c #464646",
"N 	c #3B3B3B",
"O 	c #E2E2E2",
"P 	c #4C4C4C",
"Q 	c #575757",
"R 	c #919191",
"S 	c #D7D7D7",
"T 	c #BCBCBC",
"U 	c #989898",
"V 	c #5A5A5A",
"W 	c #4E4E4E",
"X 	c #3F3F3F",
"Y 	c #727272",
"Z 	c #C2C2C2",
"` 	c #E4E4E4",
" .	c #D0D0D0",
"..	c #A0A0A0",
"+.	c #515151",
"@.	c #7B7B7B",
"#.	c #959595",
"$.	c #A5A5A5",
"%.	c #BBBBBB",
"&.	c #949494",
"*.	c #808080",
"=.	c #5F5F5F",
"-.	c #535353",
";.	c #414141",
">.	c #979797",
",.	c #D1D1D1",
"'.	c #CDCDCD",
").	c #525252",
"!.	c #606060",
"~.	c #6D6D6D",
"{.	c #6F6F6F",
"].	c #818181",
"^.	c #A4A4A4",
"/.	c #ADADAD",
"(.	c #969696",
"_.	c #7F7F7F",
":.	c #929292",
"<.	c #6C6C6C",
"[.	c #636363",
"}.	c #767676",
"|.	c #D2D2D2",
"1.	c #888888",
"2.	c #A9A9A9",
"3.	c #7D7D7D",
"4.	c #8C8C8C",
"5.	c #A9A8A9",
"6.	c #8C898D",
"7.	c #D9D3DA",
"8.	c #828282",
"9.	c #A1A1A1",
"0.	c #757575",
"a.	c #CBCBCB",
"b.	c #C4C4C4",
"c.	c #D4D4D5",
"d.	c #C1BFC2",
"e.	c #AAA5AA",
"f.	c #969097",
"g.	c #727B70",
"h.	c #4D6C4A",
"i.	c #3E783B",
"j.	c #42923F",
"k.	c #3C9238",
"l.	c #48A644",
"m.	c #4EAF4C",
"n.	c #65BE65",
"o.	c #5BB95A",
"p.	c #BABABA",
"q.	c #838383",
"r.	c #777777",
"s.	c #8A8A8A",
"t.	c #7E7E7E",
"u.	c #E9E9E9",
"v.	c #EFEFEF",
"w.	c #E7EAE6",
"x.	c #6AAF67",
"y.	c #54A251",
"z.	c #54A651",
"A.	c #5EB55B",
"B.	c #79C878",
"C.	c #94D795",
"D.	c #B3E2B3",
"E.	c #CBEACB",
"F.	c #C3E7C3",
"G.	c #BCE3BC",
"H.	c #B1DFB1",
"I.	c #A3D9A3",
"J.	c #92D292",
"K.	c #016D00",
"L.	c #B7B7B7",
"M.	c #B9B5BA",
"N.	c #3D9839",
"O.	c #DAF1DA",
"P.	c #DEF1DE",
"Q.	c #DAEFDA",
"R.	c #D6EED6",
"S.	c #CDEACD",
"T.	c #C1E6C1",
"U.	c #B0DFB0",
"V.	c #9BD69B",
"W.	c #87CD87",
"X.	c #74C674",
"Y.	c #65C065",
"Z.	c #5DBC5D",
"`.	c #21A222",
" +	c #036300",
".+	c #AEAEAE",
"++	c #6B6B6B",
"@+	c #717171",
"#+	c #DCDCDC",
"$+	c #DDDBDD",
"%+	c #52B050",
"&+	c #D9EFD9",
"*+	c #AEDDAE",
"=+	c #97D497",
"-+	c #82CC82",
";+	c #75C775",
">+	c #6CC26D",
",+	c #63BF63",
"'+	c #59BB59",
")+	c #4EB74F",
"!+	c #44B244",
"~+	c #3AAE3A",
"{+	c #22A422",
"]+	c #009300",
"^+	c #045800",
"/+	c #CACACA",
"(+	c #DDDDDD",
"_+	c #E1E1E1",
":+	c #EFE7EF",
"<+	c #3DA53A",
"[+	c #B2DFB2",
"}+	c #6AC26A",
"|+	c #60BE60",
"1+	c #57BA55",
"2+	c #4FB74B",
"3+	c #45B441",
"4+	c #3BB036",
"5+	c #30AC2C",
"6+	c #24A721",
"7+	c #17A116",
"8+	c #099A09",
"9+	c #009100",
"0+	c #044C00",
"a+	c #9C9C9C",
"b+	c #616161",
"c+	c #797979",
"d+	c #F1F1F1",
"e+	c #ECECEC",
"f+	c #F7F1F8",
"g+	c #2D9D2A",
"h+	c #94D394",
"i+	c #40B23D",
"j+	c #3CB133",
"k+	c #36B128",
"l+	c #2FAE1D",
"m+	c #26A812",
"n+	c #1DA209",
"o+	c #159B03",
"p+	c #0F8F00",
"q+	c #097D00",
"r+	c #056900",
"s+	c #99D198",
"t+	c #008E00",
"u+	c #898989",
"v+	c #5C5C5C",
"w+	c #666666",
"x+	c #9E9E9E",
"y+	c #A49FA5",
"z+	c #1A8D14",
"A+	c #6FC468",
"B+	c #1A9C0B",
"C+	c #139300",
"D+	c #1E8C0A",
"E+	c #3B8D2A",
"F+	c #327B24",
"G+	c #094600",
"H+	c #85CB83",
"I+	c #008700",
"J+	c #7C7C7C",
"K+	c #5E5E5E",
"L+	c #626262",
"M+	c #625F63",
"N+	c #1B840E",
"O+	c #59BF48",
"P+	c #3B822D",
"Q+	c #949294",
"R+	c #837C84",
"S+	c #69C068",
"T+	c #008500",
"U+	c #848484",
"V+	c #848285",
"W+	c #2D8C1A",
"X+	c #49BC2E",
"Y+	c #22790C",
"Z+	c #4DB84E",
"`+	c #028100",
" @	c #1D8300",
".@	c #3BBB12",
"+@	c #207E01",
"@@	c #33AE34",
"#@	c #087B00",
"$@	c #298F05",
"%@	c #35BC00",
"&@	c #298703",
"*@	c #1AA31B",
"=@	c #0D7402",
"-@	c #3DC100",
";@	c #308F04",
">@	c #51A73B",
",@	c #84C073",
"'@	c #81C070",
")@	c #3F9D27",
"!@	c #009802",
"~@	c #126C04",
"{@	c #81BE74",
"]@	c #9ACC90",
"^@	c #96CA8B",
"/@	c #78BD69",
"(@	c #39BE00",
"_@	c #389805",
":@	c #5FAE47",
"<@	c #C6E7C3",
"[@	c #DCF1DD",
"}@	c #BCE3BB",
"|@	c #A2D9A0",
"1@	c #91D391",
"2@	c #0C9F00",
"3@	c #287207",
"4@	c #459F2B",
"5@	c #C9E9CA",
"6@	c #C4E6C4",
"7@	c #A6DAA6",
"8@	c #8FD28E",
"9@	c #7BCA79",
"0@	c #20A521",
"a@	c #2D9105",
"b@	c #28990D",
"c@	c #AFDFB0",
"d@	c #90D28A",
"e@	c #81CF70",
"f@	c #70CB56",
"g@	c #5DC53C",
"h@	c #3AB614",
"i@	c #1B9C07",
"j@	c #347908",
"k@	c #42B13D",
"l@	c #80CB80",
"m@	c #6EC665",
"n@	c #61C44B",
"o@	c #51C030",
"p@	c #3BB914",
"q@	c #26A807",
"r@	c #2F9A0A",
"s@	c #149D00",
"t@	c #3AB424",
"u@	c #4CC023",
"v@	c #5CCB24",
"w@	c #69D327",
"x@	c #68D321",
"y@	c #54CB0D",
"z@	c #64CC2B",
"A@	c #0D9F00",
"B@	c #25AD09",
"C@	c #41BE0F",
"D@	c #65CF29",
"E@	c #75D732",
"F@	c #6ED528",
"G@	c #78D646",
"H@	c #3E9704",
"I@	c #36A909",
"J@	c #51C228",
"K@	c #57CD0F",
"L@	c #81E12E",
"M@	c #95EB39",
"N@	c #ADF066",
"O@	c #94E347",
"P@	c #2B5D01",
"Q@	c #3E9B0B",
"R@	c #61CC33",
"S@	c #78D838",
"T@	c #96E847",
"U@	c #ADF15E",
"V@	c #B7F571",
"W@	c #67BA1B",
"X@	c #52AA14",
"Y@	c #8CDA47",
"Z@	c #A4E759",
"`@	c #A0DF4D",
" #	c #65A715",
".#	c #3B7406",
"+#	c #64AB1F",
"@#	c #85BF3A",
"##	c #77B323",
"$#	c #386902",
"                          . + @                                 ",
"                    # $ % & * = - ; >                           ",
"                  + , ' ) ! ~ { ] ] . ^                         ",
"                $ ^ / $ ( _ : = < [ } | ^                       ",
"              ^ ^ | 1 2 3 4 5 5 6 7 8 9 0 ; a                   ",
"          / $ b = : c d e f _ f e d c : g f h i                 ",
"        / j k l [ 0 i m n o p o n m i 0 [ q r 0 /               ",
"      . 0 = s j ) t u v w x x x x y u t ) ; e g b @             ",
"    z A B C ^ D E F G H { I J 0 K L G M N D / 0 k I '           ",
"    / O A ~ D v P Q R ( 0 } S } 0 T U V W X Y ~ Z ` .           ",
"    |  .U ..v +.o @.#.$.a %.h %.a $.&.*.=.-.;...>.,.C           ",
"    '.$...Y ).!.~.{.].#.^.z . /., (._.:.<.[.p }.! , |.          ",
"    '.1.2.H !.{.3.[.}.^.z / a a . ~ 4.> _.Y [.~.5.6.7.          ",
"    & 8.9.3.~.3.m 0.@.a.; %.( ( b.c.d.e.f.g.h.i.j.k.l.m.n.o.    ",
"    p.q._.+ r.s.) ~ t...u.c v.r w.x.y.z.A.B.C.D.E.F.G.H.I.J.K.  ",
"    9.R 0.p.&.(., L.C %.^.^ % M.N.O.P.Q.R.S.T.U.V.W.X.Y.Z.`. +  ",
"      .+++@+ ..+a | J ,.S #+s $+%+&+*+=+-+;+>+,+'+)+!+~+{+]+^+  ",
"        9.[.@+/.d /+ .9 (+_+[ :+<+[+}+|+1+2+3+4+5+6+7+8+{+9+0+  ",
"          a+b+{.c+. < d+e+< e+f+g+h+i+j+k+l+m+n+o+p+q+r+s+t+    ",
"            u+q.v+w+[._.:.! x+y+z+A+B+C+D+E+F+G+        H+I+    ",
"                J+4.<.v+K+!.L+M+N+O+P+Q+R+              S+T+    ",
"                      K+@+t.U+V+W+X+Y+                  Z+`+    ",
"                                 @.@+@                  @@#@    ",
"                                $@%@&@                  *@=@    ",
"                                  -@;@          >@,@'@)@!@~@    ",
"                          {@]@^@/@(@_@      :@<@[@}@|@1@2@3@    ",
"                      4@5@6@7@8@9@0@a@    b@c@d@e@f@g@h@i@j@    ",
"                      k@l@m@n@o@p@q@r@    s@t@u@v@w@x@y@z@      ",
"                      A@B@C@D@E@F@G@H@    I@J@K@L@M@N@O@P@      ",
"                      Q@R@S@T@U@V@W@        X@Y@Z@`@ #          ",
"                        .#+#@###$#                              ",
"                                                                "};
